<?xml version="1.0" encoding="UTF-8"?>
<svg width="229px" height="60px" viewBox="0 0 229 60" version="1.1" xmlns="http://www.w3.org/2000/svg" xmlns:xlink="http://www.w3.org/1999/xlink">
    <!-- Generator: Sketch 51.1 (57501) - http://www.bohemiancoding.com/sketch -->
    <title>@2xGroup 2</title>
    <desc>Created with Sketch.</desc>
    <defs>
        <linearGradient x1="0%" y1="-26.2943745%" x2="134.361744%" y2="134.186614%" id="linearGradient-1">
            <stop stop-color="#1737ED" offset="0%"></stop>
            <stop stop-color="#4961FF" offset="100%"></stop>
        </linearGradient>
    </defs>
    <g id="Page-1" stroke="none" stroke-width="1" fill="none" fill-rule="evenodd">
        <g id="oks-03" transform="translate(-131.000000, -50.000000)">
            <g id="Group-2" transform="translate(131.000000, 50.000000)">
                <g id="Group-8">
                    <g id="Group-14">
                        <rect id="Rectangle-2" fill="#FFFFFF" fill-rule="nonzero" x="2" y="11" width="46" height="46" rx="23"></rect>
                        <path d="M29.5,60 C13.2075999,60 0,46.5685425 0,30 C0,13.4314575 13.2075999,0 29.5,0 C45.7924001,0 59,13.4314575 59,30 C59,46.5685425 45.7924001,60 29.5,60 Z M20.0889571,19.0243902 L20.0889571,21.1964686 L20.344553,21.1964686 C20.87344,21.1964686 21.3472756,21.6249739 21.3472756,22.1181243 L21.3472756,38.9775897 C21.3472756,39.5039862 20.87344,39.8992454 20.344553,39.8992454 L20.0889571,39.8992454 L20.0889571,42.0731707 L20.344553,42.0731707 C22.2123696,42.0731707 23.708589,40.6897637 23.708589,38.9775897 L23.708589,22.1181243 C23.708589,20.4077973 22.2123696,19.0243902 20.344553,19.0243902 L20.0889571,19.0243902 Z M18.1876773,21.1964686 L18.4601227,21.1964686 L18.4601227,19.0243902 L18.1876773,19.0243902 C16.3759153,19.0243902 14.8404908,20.4077973 14.8404908,22.1181243 L14.8404908,38.9775897 C14.8404908,40.6897637 16.3759153,42.0731707 18.1876773,42.0731707 L18.4601227,42.0731707 L18.4601227,39.8992454 L18.1876773,39.8992454 C17.6408404,39.8992454 17.1951976,39.5039862 17.1951976,38.9775897 L17.1951976,22.1181243 C17.1951976,21.6249739 17.6408404,21.1964686 18.1876773,21.1964686 Z M31.5977938,32.3780488 L29.3190184,32.3780488 L31.9285838,42.4390244 L34.2055215,42.4390244 L31.5977938,32.3780488 Z M25.6993865,26.7073171 L27.690184,26.7073171 L27.690184,19.0243902 L25.6993865,19.0243902 L25.6993865,26.7073171 Z M27.9526673,30.6475953 L31.0697057,30.6475953 L30.6753816,29.2955873 L34.2055215,19.0243902 L31.8771313,19.0243902 L28.7976476,28.6380534 L25.6993865,28.6380534 L25.6993865,42.0731707 L27.9526673,42.0731707 L27.9526673,30.6475953 Z M41.425918,31.9470945 L39.5697837,29.6341463 L39.5697837,33.0810399 L39.6947158,33.2500053 C40.2283544,33.8845641 40.3907661,34.6561727 40.3907661,35.4916125 L40.3907661,39.4754405 C40.3907661,40.0104975 39.9606427,40.4122596 39.4787617,40.4122596 L37.981361,40.4122596 C37.49948,40.4122596 37.0711413,40.0104975 37.0711413,39.4754405 L37.0711413,35.8933747 L34.9294479,35.8933747 L34.9294479,39.4754405 C34.9294479,41.2157839 36.2858537,42.6219512 37.981361,42.6219512 L39.4787617,42.6219512 C41.1403589,42.6219512 42.5306748,41.2157839 42.5306748,39.4754405 L42.5306748,35.4916125 C42.5306748,34.1868244 42.2272683,32.9496224 41.425918,31.9470945 Z M37.9099712,30.7317073 L37.9099712,27.2472317 L37.7493442,27.0500324 C37.2317683,26.3858798 37.0711413,25.6566142 37.0711413,24.8287489 L37.0711413,22.1405123 C37.0711413,21.6437931 37.49948,21.212187 37.981361,21.212187 L39.4787617,21.212187 C39.9606427,21.212187 40.3907661,21.6437931 40.3907661,22.1405123 L40.3907661,24.7282889 L42.5306748,24.7282889 L42.5306748,22.1405123 C42.5306748,20.4178084 41.1403589,19.0243902 39.4787617,19.0243902 L37.981361,19.0243902 C36.3197638,19.0243902 34.9294479,20.4494347 34.9294479,22.1405123 L34.9294479,24.8287489 C34.9294479,26.1198467 35.215007,27.3495522 36.0002946,28.3411301 L37.9099712,30.7317073 Z" id="Combined-Shape" fill="url(#linearGradient-1)"></path>
                    </g>
                    <g id="Group" transform="translate(69.000000, 17.000000)" fill="#FFFFFF">
                        <g id="Group-12" transform="translate(0.268293, 0.536585)">
                            <path d="M6.84815821,20.0304626 L7.48623068,20.0304626 L7.48623068,28.9577907 L6.84815821,28.9577907 L6.84815821,27.4784049 C6.32493879,28.460411 5.3423072,29.0980773 4.10444662,29.0980773 C2.27955938,29.0980773 0.799231267,27.6569515 0.799231267,25.7694592 C0.799231267,23.881967 2.27955938,22.4408412 4.10444662,22.4408412 C5.3423072,22.4408412 6.32493879,23.0785075 6.84815821,24.0605136 L6.84815821,20.0304626 Z M4.14273097,28.4859176 C5.66134343,28.4859176 6.84815821,27.287105 6.84815821,25.7694592 C6.84815821,24.2518135 5.66134343,23.0530009 4.14273097,23.0530009 C2.62411851,23.0530009 1.43730373,24.2518135 1.43730373,25.7694592 C1.43730373,27.287105 2.62411851,28.4859176 4.14273097,28.4859176 Z M14.3592214,22.4408412 C16.2989617,22.4408412 17.5112994,24.0477603 17.5112994,25.7949659 C17.5112994,25.8969925 17.4985379,25.9990191 17.4985379,26.1010457 L11.7176014,26.1010457 C11.8707388,27.5421715 12.9682235,28.4859176 14.4230287,28.4859176 C15.4694675,28.4859176 16.2606774,28.0012913 16.6307594,27.325365 L17.1922632,27.6569515 C16.6690437,28.5241776 15.6736507,29.0980773 14.4102672,29.0980773 C12.445004,29.0980773 11.0540061,27.6952114 11.0540061,25.7694592 C11.0540061,23.8947204 12.4067197,22.4408412 14.3592214,22.4408412 Z M14.3592214,23.0530009 C12.9044162,23.0530009 11.8452159,24.0605136 11.7176014,25.4761328 L16.847704,25.4761328 C16.7073281,23.920227 15.6098434,23.0530009 14.3592214,23.0530009 Z M21.2194507,24.2518135 C21.2194507,23.4866139 21.9213304,23.0530009 22.7508246,23.0530009 C23.4527043,23.0530009 24.1162997,23.3590807 24.3842901,24.0222536 L24.920271,23.7161738 C24.5757119,22.9382209 23.784502,22.4408412 22.7508246,22.4408412 C21.4491568,22.4408412 20.5813783,23.2443007 20.5813783,24.2518135 C20.5813783,26.5474121 24.4480974,25.5526527 24.4480974,27.287105 C24.4480974,28.0905645 23.6951719,28.4859176 22.8018704,28.4859176 C21.8447617,28.4859176 21.1556435,28.0523046 20.9259374,27.363625 L20.3771951,27.6824581 C20.6834698,28.498671 21.5257255,29.0980773 22.8018704,29.0980773 C24.1673455,29.0980773 25.0861698,28.3328777 25.0861698,27.287105 C25.0861698,24.9532464 21.2194507,25.9607591 21.2194507,24.2518135 Z M28.9219357,21.0379754 C29.2026875,21.0379754 29.4323936,20.8084155 29.4323936,20.5278423 C29.4323936,20.2600225 29.2026875,20.0304626 28.9219357,20.0304626 C28.6411838,20.0304626 28.4114777,20.2600225 28.4114777,20.5278423 C28.4114777,20.8084155 28.6411838,21.0379754 28.9219357,21.0379754 Z M28.6028994,28.9577907 L29.2409719,28.9577907 L29.2409719,22.5811278 L28.6028994,22.5811278 L28.6028994,28.9577907 Z M38.90872,22.5811278 L39.5467925,22.5811278 L39.5467925,28.6517109 C39.5467925,30.5647097 38.1302716,31.6487424 36.3691916,31.6487424 C34.8761021,31.6487424 33.8169018,31.0493361 33.3574896,30.1183433 L33.9189934,29.7995102 C34.250791,30.4754365 34.9654322,31.0365828 36.3691916,31.0365828 C37.9643728,31.0365828 38.90872,30.10559 38.90872,28.6517109 L38.90872,27.4784049 C38.3855006,28.460411 37.402869,29.0980773 36.1650084,29.0980773 C34.3401212,29.0980773 32.8597931,27.6569515 32.8597931,25.7694592 C32.8597931,23.881967 34.3401212,22.4408412 36.1650084,22.4408412 C37.402869,22.4408412 38.3855006,23.0785075 38.90872,24.0605136 L38.90872,22.5811278 Z M36.2032928,28.4859176 C37.7219052,28.4859176 38.90872,27.287105 38.90872,25.7694592 C38.90872,24.2518135 37.7219052,23.0530009 36.2032928,23.0530009 C34.6846803,23.0530009 33.4978655,24.2518135 33.4978655,25.7694592 C33.4978655,27.287105 34.6846803,28.4859176 36.2032928,28.4859176 Z M46.470829,22.4408412 C45.4881974,22.4408412 44.6714647,22.8489476 44.1865296,23.7926937 L44.1865296,22.5811278 L43.5484572,22.5811278 L43.5484572,28.9577907 L44.1865296,28.9577907 L44.1865296,25.5909127 C44.1865296,23.8692137 45.1691612,23.0530009 46.4197832,23.0530009 C47.6193595,23.0530009 48.2957163,23.8182004 48.2957163,24.9915064 L48.2957163,28.9577907 L48.9465502,28.9577907 L48.9465502,24.9915064 C48.9465502,23.448354 47.9894415,22.4408412 46.470829,22.4408412 Z M53.8670392,28.0905645 L53.0758293,28.0905645 L52.5908943,30.7432563 L53.1779209,30.7432563 L53.8670392,28.0905645 Z M66.030601,29.0980773 C67.281223,29.0980773 68.3531847,28.460411 68.8636427,27.4784049 L68.3276618,27.1595718 C67.906534,27.950278 67.0642784,28.4859176 66.030601,28.4859176 C64.4864656,28.4859176 63.3251737,27.287105 63.3251737,25.7694592 C63.3251737,24.2518135 64.4864656,23.0530009 66.030601,23.0530009 C67.0515169,23.0530009 67.9192955,23.5758872 68.2893775,24.3793467 L68.8125969,24.0732669 C68.3531847,23.0785075 67.281223,22.4408412 66.030601,22.4408412 C64.1036221,22.4408412 62.6743398,23.881967 62.6743398,25.7694592 C62.6743398,27.6569515 64.1036221,29.0980773 66.030601,29.0980773 Z M75.1623682,29.0980773 C73.2991966,29.0980773 71.8061071,27.6569515 71.8061071,25.7694592 C71.8061071,23.881967 73.2991966,22.4408412 75.1623682,22.4408412 C77.0127784,22.4408412 78.5058679,23.881967 78.5058679,25.7694592 C78.5058679,27.6569515 77.0127784,29.0980773 75.1623682,29.0980773 Z M75.1623682,28.4859176 C76.6809807,28.4859176 77.855034,27.287105 77.855034,25.7694592 C77.855034,24.2518135 76.6809807,23.0530009 75.1623682,23.0530009 C73.6437558,23.0530009 72.456941,24.2518135 72.456941,25.7694592 C72.456941,27.287105 73.6437558,28.4859176 75.1623682,28.4859176 Z M87.7014425,20.0304626 L88.3395149,20.0304626 L88.3395149,28.9577907 L87.7014425,28.9577907 L87.7014425,27.4784049 C87.178223,28.460411 86.1955914,29.0980773 84.9577309,29.0980773 C83.1328436,29.0980773 81.6525155,27.6569515 81.6525155,25.7694592 C81.6525155,23.881967 83.1328436,22.4408412 84.9577309,22.4408412 C86.1955914,22.4408412 87.178223,23.0785075 87.7014425,24.0605136 L87.7014425,20.0304626 Z M84.9960152,28.4859176 C86.5146277,28.4859176 87.7014425,27.287105 87.7014425,25.7694592 C87.7014425,24.2518135 86.5146277,23.0530009 84.9960152,23.0530009 C83.4774028,23.0530009 82.290588,24.2518135 82.290588,25.7694592 C82.290588,27.287105 83.4774028,28.4859176 84.9960152,28.4859176 Z M95.2125057,22.4408412 C97.1522459,22.4408412 98.3645836,24.0477603 98.3645836,25.7949659 C98.3645836,25.8969925 98.3518222,25.9990191 98.3518222,26.1010457 L92.5708857,26.1010457 C92.7240231,27.5421715 93.8215077,28.4859176 95.2763129,28.4859176 C96.3227517,28.4859176 97.1139616,28.0012913 97.4840436,27.325365 L98.0455474,27.6569515 C97.522328,28.5241776 96.5269349,29.0980773 95.2635515,29.0980773 C93.2982883,29.0980773 91.9072903,27.6952114 91.9072903,25.7694592 C91.9072903,23.8947204 93.2600039,22.4408412 95.2125057,22.4408412 Z M95.2125057,23.0530009 C93.7577004,23.0530009 92.6985002,24.0605136 92.5708857,25.4761328 L97.7009883,25.4761328 C97.5606123,23.920227 96.4631277,23.0530009 95.2125057,23.0530009 Z M102.46834,28.0905645 L101.67713,28.0905645 L101.192195,30.7432563 L101.779222,30.7432563 L102.46834,28.0905645 Z M114.580856,22.4408412 C116.520596,22.4408412 117.732934,24.0477603 117.732934,25.7949659 C117.732934,25.8969925 117.720172,25.9990191 117.720172,26.1010457 L111.939236,26.1010457 C112.092373,27.5421715 113.189858,28.4859176 114.644663,28.4859176 C115.691102,28.4859176 116.482312,28.0012913 116.852394,27.325365 L117.413898,27.6569515 C116.890678,28.5241776 115.895285,29.0980773 114.631902,29.0980773 C112.666638,29.0980773 111.275641,27.6952114 111.275641,25.7694592 C111.275641,23.8947204 112.628354,22.4408412 114.580856,22.4408412 Z M114.580856,23.0530009 C113.126051,23.0530009 112.06685,24.0605136 111.939236,25.4761328 L117.069338,25.4761328 C116.928963,23.920227 115.831478,23.0530009 114.580856,23.0530009 Z M125.690648,22.5811278 L123.278734,28.2946177 L120.879581,22.5811278 L120.190463,22.5811278 L122.89589,28.9577907 L123.674339,28.9577907 L126.367005,22.5811278 L125.690648,22.5811278 Z M132.231841,29.0980773 C130.368669,29.0980773 128.87558,27.6569515 128.87558,25.7694592 C128.87558,23.881967 130.368669,22.4408412 132.231841,22.4408412 C134.082251,22.4408412 135.575341,23.881967 135.575341,25.7694592 C135.575341,27.6569515 134.082251,29.0980773 132.231841,29.0980773 Z M132.231841,28.4859176 C133.750453,28.4859176 134.924507,27.287105 134.924507,25.7694592 C134.924507,24.2518135 133.750453,23.0530009 132.231841,23.0530009 C130.713228,23.0530009 129.526414,24.2518135 129.526414,25.7694592 C129.526414,27.287105 130.713228,28.4859176 132.231841,28.4859176 Z M139.143116,28.9577907 L139.781188,28.9577907 L139.781188,19.6478629 L139.143116,19.6478629 L139.143116,28.9577907 Z M148.466305,22.5811278 L146.054391,28.2946177 L143.655239,22.5811278 L142.96612,22.5811278 L145.671548,28.9577907 L146.449996,28.9577907 L149.142662,22.5811278 L148.466305,22.5811278 Z M155.211681,22.4408412 C157.151421,22.4408412 158.363759,24.0477603 158.363759,25.7949659 C158.363759,25.8969925 158.350998,25.9990191 158.350998,26.1010457 L152.570061,26.1010457 C152.723199,27.5421715 153.820683,28.4859176 155.275488,28.4859176 C156.321927,28.4859176 157.113137,28.0012913 157.483219,27.325365 L158.044723,27.6569515 C157.521503,28.5241776 156.52611,29.0980773 155.262727,29.0980773 C153.297464,29.0980773 151.906466,27.6952114 151.906466,25.7694592 C151.906466,23.8947204 153.259179,22.4408412 155.211681,22.4408412 Z M155.211681,23.0530009 C153.756876,23.0530009 152.697676,24.0605136 152.570061,25.4761328 L157.700164,25.4761328 C157.559788,23.920227 156.462303,23.0530009 155.211681,23.0530009 Z" id="design,-code,-evolve"></path>
                            <path d="M11.3424126,0.671043262 L0,0.671043262 L0,3.87733666 L3.92621976,3.87733666 L3.92621976,15.2451041 L7.41619288,15.2451041 L7.41619288,3.87733666 L11.3424126,3.87733666 L11.3424126,0.671043262 Z M16.359249,12.0388108 L16.359249,9.45711997 L21.812332,9.45711997 L21.812332,6.29246675 L16.359249,6.29246675 L16.359249,3.87733666 L22.3576403,3.87733666 L22.3576403,0.671043262 L12.8692759,0.671043262 L12.8692759,15.2451041 L22.466702,15.2451041 L22.466702,12.0388108 L16.359249,12.0388108 Z M31.7151307,15.5365854 C34.5071092,15.5365854 36.9500904,14.2249199 38.2588303,12.1637313 L35.2487285,10.4981243 C34.5943586,11.622409 33.2638063,12.2886518 31.7151307,12.2886518 C29.0104016,12.2886518 27.265415,10.5605846 27.265415,7.9580737 C27.265415,5.35556283 29.0104016,3.62749561 31.7151307,3.62749561 C33.2638063,3.62749561 34.5725462,4.2937384 35.2487285,5.41802309 L38.2588303,3.75241613 C36.9282781,1.69122752 34.4852969,0.379562044 31.7151307,0.379562044 C27.1127287,0.379562044 23.7754419,3.66913579 23.7754419,7.9580737 C23.7754419,12.2470116 27.1127287,15.5365854 31.7151307,15.5365854 Z M48.4015647,0.671043262 L48.4015647,6.25082657 L43.6028517,6.25082657 L43.6028517,0.671043262 L40.1128786,0.671043262 L40.1128786,15.2451041 L43.6028517,15.2451041 L43.6028517,9.45711997 L48.4015647,9.45711997 L48.4015647,15.2451041 L51.8915379,15.2451041 L51.8915379,0.671043262 L48.4015647,0.671043262 Z M63.0158272,0.671043262 L63.0158272,8.58267631 L57.1264975,0.671043262 L54.5090177,0.671043262 L54.5090177,15.2451041 L57.9989908,15.2451041 L57.9989908,7.3334711 L63.8883205,15.2451041 L66.5058003,15.2451041 L66.5058003,0.671043262 L63.0158272,0.671043262 Z M76.408599,15.5365854 C72.0243203,15.5365854 68.4689102,12.2470116 68.4689102,7.9580737 C68.4689102,3.66913579 72.0243203,0.379562044 76.408599,0.379562044 C80.7928778,0.379562044 84.3482879,3.66913579 84.3482879,7.9580737 C84.3482879,12.2470116 80.7928778,15.5365854 76.408599,15.5365854 Z M76.408599,12.2886518 C78.8952049,12.2886518 80.8583148,10.5605846 80.8583148,7.9580737 C80.8583148,5.35556283 78.8952049,3.62749561 76.408599,3.62749561 C73.9219932,3.62749561 71.9588833,5.35556283 71.9588833,7.9580737 C71.9588833,10.5605846 73.9219932,12.2886518 76.408599,12.2886518 Z M89.8013709,12.0388108 L89.8013709,0.671043262 L86.3113978,0.671043262 L86.3113978,15.2451041 L95.2544539,15.2451041 L95.2544539,12.0388108 L89.8013709,12.0388108 Z M104.066636,15.5365854 C99.6823573,15.5365854 96.1269472,12.2470116 96.1269472,7.9580737 C96.1269472,3.66913579 99.6823573,0.379562044 104.066636,0.379562044 C108.450915,0.379562044 112.006325,3.66913579 112.006325,7.9580737 C112.006325,12.2470116 108.450915,15.5365854 104.066636,15.5365854 Z M104.066636,12.2886518 C106.553242,12.2886518 108.516352,10.5605846 108.516352,7.9580737 C108.516352,5.35556283 106.553242,3.62749561 104.066636,3.62749561 C101.58003,3.62749561 99.6169203,5.35556283 99.6169203,7.9580737 C99.6169203,10.5605846 101.58003,12.2886518 104.066636,12.2886518 Z M129.085381,7.12527023 L121.429252,7.12527023 L121.429252,10.0400824 L125.508158,10.0400824 C124.96285,11.4350282 123.632298,12.2886518 121.603751,12.2886518 C118.637274,12.2886518 116.805038,10.4773042 116.805038,7.99971388 C116.805038,5.43884318 118.724523,3.62749561 121.298378,3.62749561 C123.021553,3.62749561 124.395729,4.37701874 125.028287,5.33474275 L127.994764,3.71077596 C126.707837,1.75368778 124.243043,0.379562044 121.320191,0.379562044 C116.82685,0.379562044 113.315065,3.75241613 113.315065,7.97889379 C113.315065,12.1637313 116.761413,15.5365854 121.560126,15.5365854 C125.835343,15.5365854 129.085381,12.8299741 129.085381,8.37447544 L129.085381,7.12527023 Z M131.048491,0.671043262 L131.048491,15.2451041 L134.538464,15.2451041 L134.538464,0.671043262 L131.048491,0.671043262 Z M140.645917,12.0388108 L140.645917,9.45711997 L146.099,9.45711997 L146.099,6.29246675 L140.645917,6.29246675 L140.645917,3.87733666 L146.644308,3.87733666 L146.644308,0.671043262 L137.155944,0.671043262 L137.155944,15.2451041 L146.75337,15.2451041 L146.75337,12.0388108 L140.645917,12.0388108 Z M154.060501,15.5365854 C157.375975,15.5365854 159.731707,13.8709784 159.731707,11.0602667 C159.731707,7.97889379 157.13604,7.20855057 154.823933,6.54230779 C152.446388,5.85524492 152.075579,5.39720301 152.075579,4.73096022 C152.075579,4.14799779 152.620887,3.62749561 153.711504,3.62749561 C155.107493,3.62749561 155.8273,4.27291831 156.350796,5.31392266 L159.295461,3.66913579 C158.183032,1.52466683 156.219922,0.379562044 153.711504,0.379562044 C151.072212,0.379562044 148.585606,2.00352883 148.585606,4.81424057 C148.585606,7.60413223 150.810464,8.64513658 153.078946,9.2489191 C155.369241,9.85270162 156.241734,10.2066431 156.241734,11.1019068 C156.241734,11.6640492 155.8273,12.2886518 154.169563,12.2886518 C152.446388,12.2886518 151.508458,11.4766684 150.96315,10.2691034 L147.953048,11.9347103 C148.803729,14.0791793 150.854088,15.5365854 154.060501,15.5365854 Z" id="TECHNOLOGIES"></path>
                        </g>
                    </g>
                </g>
            </g>
        </g>
    </g>
</svg>